<?xml version="1.0" encoding="UTF-8"?>
<!DOCTYPE svg PUBLIC "-//W3C//DTD SVG 1.1//EN" "http://www.w3.org/Graphics/SVG/1.1/DTD/svg11.dtd">
<!-- Creator: CorelDRAW -->
<svg xmlns="http://www.w3.org/2000/svg" xml:space="preserve" width="16in" height="9in" version="1.1" style="shape-rendering:geometricPrecision; text-rendering:geometricPrecision; image-rendering:optimizeQuality; fill-rule:evenodd; clip-rule:evenodd"
viewBox="0 0 16000 9000"
 xmlns:xlink="http://www.w3.org/1999/xlink"
 xmlns:xodm="http://www.corel.com/coreldraw/odm/2003">
 <defs>
  <style type="text/css">
   <![CDATA[
    .fil0 {fill:black}
    .fil1 {fill:black;fill-rule:nonzero}
   ]]>
  </style>
 </defs>
 <g id="Layer_x0020_1">
  <metadata id="CorelCorpID_0Corel-Layer"/>
  <g id="_2137711792064">
   <path class="fil0" d="M8281.74 3759.47l0 -239.78 -983.9 0 0 239.78 360.46 0 0 843.13 262.99 0 0 -843.13 360.45 0zm2613.88 95.92c0,447.09 618.81,242.89 618.81,430.07 0,40.23 -49.5,82 -190.29,82 -211.94,0 -306.31,-44.87 -382.11,-72.71l0 264.54c116.02,43.31 215.04,60.33 388.3,60.33 252.16,0 445.54,-109.83 445.54,-352.71 0,-447.09 -617.26,-241.33 -617.26,-426.98 0,-43.31 47.95,-83.53 188.73,-83.53 211.94,0 306.31,44.86 382.12,71.16l0 -262.99c-114.48,-43.32 -213.49,-60.33 -388.3,-60.33 -252.17,0 -445.55,108.29 -445.55,351.17zm-931.31 0c0,447.09 618.81,242.89 618.81,430.07 0,40.23 -49.5,82 -190.28,82 -211.94,0 -306.31,-44.87 -382.11,-72.71l0 264.54c116.02,43.31 215.04,60.33 388.3,60.33 252.16,0 445.54,-109.83 445.54,-352.71 0,-447.09 -617.26,-241.33 -617.26,-426.98 0,-43.31 47.95,-83.53 188.74,-83.53 211.94,0 306.31,44.86 382.11,71.16l0 -262.99c-114.48,-43.32 -213.49,-60.33 -388.3,-60.33 -252.17,0 -445.55,108.29 -445.55,351.17zm-1405.62 119.12l0 643.56 -263 0 0 -646.65c0,-295.48 187.2,-451.74 474.93,-451.74 21.13,0 41.74,0.91 61.76,2.69l0 253.73c-21.13,-5.94 -43.54,-8.88 -66.4,-8.88 -111.39,0 -207.3,68.06 -207.3,207.29zm641.4 188.74l0 -643.56 -263 0 0 646.65c0,295.48 187.19,451.73 474.94,451.73 280.01,0 467.2,-156.25 467.2,-451.73l0 -646.65 -263 0 0 643.56c0,139.23 -99.01,207.3 -208.84,207.3 -111.38,0 -207.3,-68.07 -207.3,-207.3z"/>
   <path class="fil1" d="M7586.25 5303.71l-74.13 0 0 -394.01 121.12 0 108.57 271.13c0.97,3.31 1.85,6.91 2.53,10.8 0.68,3.89 1.07,7.49 1.27,10.8l0.87 35.9 4.96 0 0.88 -35.9c0.19,-3.31 0.68,-6.91 1.36,-10.8 0.68,-3.89 1.46,-7.49 2.43,-10.8l107.99 -271.13 119.66 0 0 394.01 -74.13 0 0 -238.16c0,-3.31 0.29,-7 0.78,-11.09 0.49,-4.09 1.17,-7.78 2.14,-11.09l9.05 -82.3 -4.96 0 -124.43 342.64 -88.53 0 -124.43 -342.64 -4.96 0 9.05 84.64c0.97,3.31 1.75,6.91 2.24,10.9 0.48,3.99 0.68,7.69 0.68,10.99l0 236.11z"/>
   <polygon id="_1" class="fil1" points="8040.96,4909.7 8364.93,4909.7 8364.93,4967.49 8115.68,4967.49 8115.68,5073.72 8353.83,5073.72 8353.83,5131.51 8115.68,5131.51 8115.68,5245.92 8364.93,5245.92 8364.93,5303.71 8040.96,5303.71 "/>
   <path id="_2" class="fil1" d="M8411.62 4909.7l201.09 0c56.43,0 99.62,14.59 129.49,43.87 29.87,29.28 44.75,80.26 44.75,152.84 0,72.77 -14.89,123.84 -44.75,153.22 -29.87,29.38 -73.06,44.07 -129.49,44.07l-201.09 0 0 -394.01zm186.98 339.14c37.26,0 65.57,-9.15 84.74,-27.53 19.26,-18.39 28.89,-56.62 28.89,-114.89 0,-58.08 -9.63,-96.22 -28.89,-114.51 -19.17,-18.19 -47.48,-27.33 -84.74,-27.33l-112.27 0 0 284.27 112.27 0z"/>
   <polygon id="_3" class="fil1" points="8842.99,4909.7 8917.12,4909.7 8917.12,5303.71 8842.99,5303.71 "/>
   <path id="_4" class="fil1" d="M9140.68 4909.12l103.9 0 163.44 394.59 -77.63 0 -41.44 -104.48 -192.92 0 -41.44 104.48 -77.64 0 163.73 -394.59zm-23.35 234.65l151.77 0 -67.42 -166.36c-1.56,-4.08 -2.92,-8.76 -4.09,-13.91 -1.17,-5.16 -1.85,-9.93 -2.04,-14.4l0 -5.55 -4.67 0 0.29 5.55c-0.39,4.47 -1.07,9.24 -2.14,14.4 -1.07,5.15 -2.43,9.83 -3.99,13.91l-67.71 166.36z"/>
   <path id="_5" class="fil1" d="M9823.15 5306.04c-60.22,0 -107.21,-15.08 -140.97,-45.24 -33.76,-30.26 -50.59,-81.92 -50.59,-155.17 0,-71.99 17.12,-123.26 51.37,-153.71 34.24,-30.45 82.79,-45.72 145.64,-45.72 58.57,0 104.39,13.23 137.46,39.69 33.08,26.46 50.2,62.94 51.37,109.45l-74.72 0c-1.36,-33.27 -11.09,-58.08 -29.28,-74.43 -18.19,-16.34 -46.41,-24.52 -84.54,-24.52 -39.69,0 -69.95,10.22 -90.77,30.74 -20.82,20.53 -31.23,60.52 -31.23,119.86 0,54.09 10.51,92.32 31.42,114.7 20.92,22.37 51.46,33.56 91.74,33.56 38.14,0 66.06,-7.39 83.76,-22.28 17.71,-14.79 27.05,-37.06 28.02,-66.74l2.63 -15.47 -107.11 0 0 -43.78 180.07 0 0 196.71 -48.45 0 0 -56.62 7.3 -22.86 -4.09 -7.59 -7.88 18.09c-17.12,47.57 -64.11,71.31 -141.16,71.31z"/>
   <path id="_6" class="fil1" d="M10068.79 4909.7l233.39 0c43.19,0 74.62,11.19 94.07,33.56 19.46,22.47 29.19,51.37 29.19,86.78 0,35.31 -10.12,63.72 -30.35,85.42 -16.93,18.29 -42.52,28.89 -76.57,31.81l2.33 4.09 26.95 -3.5 75.88 155.85 -81.52 0 -81.53 -155.85 -117.13 0 0 155.85 -74.72 0 0 -394.01zm213.35 189.71c23.74,0 41.06,-6.33 51.85,-18.87 10.8,-12.55 16.15,-29.09 16.15,-49.71 0,-20.24 -5.35,-36.87 -16.15,-49.81 -10.8,-12.94 -28.11,-19.36 -51.85,-19.36l-138.63 0 0 137.76 138.63 0z"/>
   <path id="_7" class="fil1" d="M10676.34 5307.21c-61.58,0 -111.49,-14.98 -149.92,-45.04 -38.33,-29.96 -57.5,-81.82 -57.5,-155.46 0,-73.65 19.17,-125.5 57.4,-155.46 38.23,-30.06 88.24,-45.04 150.02,-45.04 61.68,0 111.69,14.98 150.11,45.04 38.33,29.96 57.5,81.82 57.5,155.46 0,73.65 -19.17,125.5 -57.5,155.46 -38.43,30.06 -88.43,45.04 -150.11,45.04zm0 -50.78c38.81,0 70.73,-10.02 95.54,-29.96 24.91,-19.94 37.36,-59.83 37.36,-119.66 0,-59.74 -12.45,-99.72 -37.36,-119.76 -24.81,-20.04 -56.72,-30.06 -95.54,-30.06 -38.72,0 -70.53,10.02 -95.34,30.06 -24.91,20.04 -37.35,60.02 -37.35,119.76 0,59.83 12.45,99.72 37.35,119.66 24.81,19.94 56.62,29.96 95.34,29.96z"/>
   <path id="_8" class="fil1" d="M11122.4 5306.04c-62.26,0 -109.55,-11.77 -141.94,-35.31 -32.4,-23.54 -48.65,-61.78 -48.65,-114.5l0 -246.52 74.72 0 0 237.57c0,38.33 9.54,65.28 28.6,80.94 18.97,15.66 48.16,23.54 87.46,23.54 39.01,0 68.1,-7.78 87.07,-23.35 19.07,-15.57 28.6,-42.61 28.6,-81.14l0 -237.57 74.72 0 0 246.52c0,52.73 -16.15,90.96 -48.55,114.5 -32.4,23.54 -79.78,35.31 -142.04,35.31z"/>
   <path id="_9" class="fil1" d="M11365.52 4909.7l213.54 0c48.64,0 83.86,12.06 105.46,36.19 21.6,24.22 32.4,59.25 32.4,105.17 0,46.21 -10.8,81.33 -32.4,105.56 -21.69,24.13 -56.81,36.19 -105.46,36.19l-138.83 0 0 110.91 -74.72 0 0 -394.01zm195.54 227.06c29.19,0 50.1,-6.32 62.75,-18.97 12.65,-12.55 18.97,-34.83 18.97,-66.74 0,-31.42 -6.22,-53.5 -18.78,-66.25 -12.55,-12.74 -33.56,-19.07 -62.94,-19.07l-120.83 0 0 171.03 120.83 0z"/>
  </g>
  <path class="fil0" d="M5032.81 4056.24l0 1052.83 -237.4 -271.11c-25.75,-31.96 -50.77,-62.67 -79.61,-92.29l-469.76 -547.26c-11.43,-14.26 -34.55,-32.06 -42.47,-45.29 -17.81,-29.8 7.74,-23.79 38.81,-27.65l790.43 -69.23zm222.03 1067.15l0 -1067.15c285.29,0 480.44,26.28 752.61,56.7 37.76,4.22 73.35,12.13 106.84,14.92 -30.47,45.5 -70.03,80.59 -104.41,124.78l-670.16 776.58c-19.54,24.26 -63.17,79.61 -84.89,94.16zm-1425.26 -1410.93c97.97,-22.82 207.98,-39.48 308.98,-56.29 197.84,-32.91 332.26,-38.61 496.2,-62.44 82.4,-11.98 467.31,-24.5 562.78,-24.5 372.39,0 761.99,37.05 1122.65,109.22 37.65,7.54 109.83,26.86 152.2,26.86 -6.57,24.62 -20.81,38.89 -37.56,55.55l-127.17 152.15 -516.3 -71.01c-534.63,-44.95 -983.91,-42.54 -1519,33.93 -51.63,7.38 -241.95,30.34 -270.89,44.24l-127.24 -152.07c-21.49,-24.08 -26.56,-28.61 -44.65,-55.63zm-451.21 -150.4l439.03 513.52c10.68,12.63 17.43,17.17 27.56,29.74l305.11 353.8c13.7,14.74 13.26,17.46 25.43,31.86l139.43 161.38c20.5,23.01 36.09,41.93 57.16,64.59 13.74,14.77 13.24,17.41 25.41,31.88 10.39,12.35 17.79,17.28 28.25,29.05 12.7,14.3 12.51,17.74 25.25,32.04 13.3,14.93 18.28,18.46 30.33,34.13l109.18 127.17c21.33,21.45 36.63,41.43 57.22,64.54 12.7,14.26 12.61,17.75 25.3,32 13.32,14.95 18.27,18.42 30.31,34.13l444.06 515.67c29.63,-19.84 33.05,-33.63 55.62,-58.97 20.57,-23.11 35.89,-43.1 57.22,-64.54 14.47,-14.55 13.58,-14.7 26.26,-31.03l716.21 -830.8c12.44,-15.98 18.43,-19.38 30.64,-33.82 12.2,-14.43 11.62,-17.25 25.36,-31.93l663.28 -769.14c48.62,-60.7 150.86,-163.04 194.43,-228.12 -89.18,-42.8 -727.25,-160.82 -807.2,-174 -586.92,-96.76 -1297.37,-83.4 -1873.56,-0.04 -152.75,22.09 -290.25,45.5 -434.19,74.31 -71.02,14.21 -137.99,30.41 -211.29,46.54l-211.82 46.02z"/>
 </g>
</svg>
